<svg width="69" height="20" viewBox="0 0 69 20" fill="none" xmlns="http://www.w3.org/2000/svg">
<path fill-rule="evenodd" clip-rule="evenodd" d="M66.9352 2.09468C65.6551 0.795978 63.9 0 61.9592 0C60.0183 0 58.2632 0.795978 56.9831 2.09468C55.7029 3.39338 54.9183 5.17386 54.9183 7.14286C54.9183 9.11186 55.7029 10.8923 56.9831 12.191C58.2632 13.4897 60.0183 14.2857 61.9592 14.2857C63.9 14.2857 65.6551 13.4897 66.9352 12.191C68.2154 10.8923 69 9.11186 69 7.14286C69 5.17386 68.2154 3.37243 66.9352 2.09468ZM65.2834 7.14286C65.2834 8.06452 64.9118 8.90239 64.313 9.53079C63.7142 10.1383 62.8676 10.5153 61.9592 10.5153C61.0507 10.5153 60.2248 10.1383 59.6053 9.53079C59.0066 8.92334 58.6349 8.06452 58.6349 7.14286C58.6349 6.2212 59.0066 5.38333 59.6053 4.75492C60.2041 4.14747 61.0507 3.77042 61.9592 3.77042C62.8676 3.77042 63.6935 4.14747 64.313 4.75492C64.9118 5.36238 65.2834 6.20025 65.2834 7.14286Z" fill="white"/>
<path fill-rule="evenodd" clip-rule="evenodd" d="M46.4694 0C44.5285 0 42.7735 0.795978 41.4933 2.09468C40.2132 3.39338 39.4286 5.17386 39.4286 7.14286C39.4286 9.11186 40.2132 10.8923 41.4933 12.191C42.7735 13.4897 44.5285 14.2857 46.4694 14.2857C48.4103 14.2857 50.1653 13.4897 51.4455 12.191C52.7256 10.8923 53.5102 9.11186 53.5102 7.14286C53.5102 5.17386 52.7256 3.39338 51.4455 2.09468C50.1653 0.816925 48.4103 0 46.4694 0ZM49.7937 7.1638C49.7937 8.08546 49.422 8.92333 48.8232 9.55174C48.2244 10.1592 47.3779 10.5362 46.4694 10.5362C45.5609 10.5362 44.735 10.1592 44.1156 9.55174C43.5168 8.94428 43.1451 8.08546 43.1451 7.1638C43.1451 6.24215 43.5168 5.40427 44.1156 4.77587C44.7144 4.16841 45.5403 3.79137 46.4694 3.79137C47.3779 3.79137 48.2038 4.16841 48.8232 4.77587C49.422 5.38333 49.7937 6.2212 49.7937 7.1638Z" fill="white"/>
<path fill-rule="evenodd" clip-rule="evenodd" d="M35.4507 0C34.4256 0 33.6055 0.847102 33.6055 1.90598C33.6055 5.46381 33.6055 9.00046 33.6055 12.5371C33.6055 14.1466 32.6214 15.502 31.2273 16.0102L30.2432 16.2644C29.2591 16.5397 28.6646 17.5774 28.9311 18.5939C29.1771 19.5681 30.0997 20.1399 31.0428 19.9704C34.5896 19.4622 37.3163 16.3279 37.3163 12.5371C37.3163 8.97928 37.2958 5.46381 37.2958 1.90598C37.2958 0.86828 36.4758 0 35.4507 0Z" fill="white"/>
<path fill-rule="evenodd" clip-rule="evenodd" d="M31.6837 12.4211V7.20551V7.16362V7.12172V7.10078V7.05889V7.03794C31.663 5.11088 30.8784 3.37235 29.6189 2.09462C28.3388 0.795957 26.5837 0 24.6429 0C22.702 0 20.947 0.795957 19.6668 2.09462C18.3867 3.39329 17.6021 5.17372 17.6021 7.14267C17.6021 9.11162 18.3867 10.892 19.6668 12.1907C20.947 13.4894 22.702 14.2853 24.6429 14.2853C25.9437 14.2853 27.1619 13.9293 28.1942 13.3009C28.504 13.8874 29.1234 14.2853 29.8254 14.2853C30.8578 14.3063 31.6837 13.4475 31.6837 12.4211ZM27.9671 7.20551C27.9465 8.1062 27.5748 8.94405 26.9967 9.55149C26.3979 10.1589 25.5514 10.536 24.6429 10.536C23.7344 10.536 22.9085 10.1589 22.289 9.55149C21.6903 8.94405 21.3186 8.08525 21.3186 7.16362C21.3186 6.24198 21.6903 5.40413 22.289 4.77574C22.8878 4.1683 23.7344 3.79127 24.6429 3.79127C25.5514 3.79127 26.3773 4.1683 26.9967 4.77574C27.5955 5.38319 27.9671 6.20009 27.9671 7.12172V7.20551Z" fill="white"/>
<path fill-rule="evenodd" clip-rule="evenodd" d="M14.7512 1.50376C13.8447 0.584795 12.6085 0 11.2282 0C10.0539 0 8.96196 0.417711 8.09666 1.12782C7.23137 0.417711 6.16006 0 4.96513 0C3.60538 0 2.36925 0.584795 1.46276 1.48287C0.556259 2.40184 0 3.65497 0 5.03342V12.3851C0 13.4294 0.824088 14.2648 1.8542 14.2648C2.88431 14.2648 3.7084 13.4294 3.7084 12.3851V7.665V7.58145C3.39936 7.58145 3.09033 7.58145 2.7813 7.58145C2.55467 7.58145 2.45166 7.39348 2.59588 7.20551C3.31695 6.34921 4.03803 5.51378 4.75911 4.65748C4.94453 4.46951 4.98573 4.40685 5.19175 4.65748C5.91283 5.51378 6.63391 6.34921 7.35498 7.20551C7.5198 7.3726 7.41679 7.58145 7.19017 7.58145C6.88113 7.58145 6.5721 7.58145 6.26307 7.58145C6.26307 9.18964 6.24247 10.7978 6.24247 12.406C6.24247 13.4503 7.06655 14.2857 8.09666 14.2857C9.12677 14.2857 9.95086 13.4503 9.95086 12.406C9.95086 10.1086 9.95086 7.81119 9.95086 5.51378C9.64183 5.51378 9.33279 5.51378 9.02376 5.51378C8.79714 5.51378 8.69413 5.32581 8.83834 5.13784C9.55942 4.28154 10.2805 3.44612 11.0016 2.58981C11.187 2.40184 11.2282 2.33918 11.4342 2.58981C12.1553 3.44612 12.8764 4.28154 13.5974 5.13784C13.7623 5.32581 13.6387 5.51378 13.412 5.51378C13.103 5.51378 12.794 5.51378 12.4849 5.51378C12.4849 7.81119 12.4849 10.1086 12.4849 12.406C12.4849 13.4503 13.309 14.2857 14.3391 14.2857C15.3692 14.2857 16.1933 13.4503 16.1933 12.406V5.0543C16.2139 3.67586 15.6577 2.42272 14.7512 1.50376Z" fill="white"/>
</svg>
